<?xml version="1.0" encoding="UTF-8"?>
<svg width="33.305mm" height="8.4173mm" version="1.1" viewBox="0 0 33.305 8.4173" xmlns="http://www.w3.org/2000/svg" xmlns:cc="http://creativecommons.org/ns#" xmlns:dc="http://purl.org/dc/elements/1.1/" xmlns:rdf="http://www.w3.org/1999/02/22-rdf-syntax-ns#">
 <metadata>
  <rdf:RDF>
   <cc:Work rdf:about="">
    <dc:format>image/svg+xml</dc:format>
    <dc:type rdf:resource="http://purl.org/dc/dcmitype/StillImage"/>
    <dc:title/>
   </cc:Work>
  </rdf:RDF>
 </metadata>
 <g transform="translate(-26.64 -138.99)">
  <g stroke-width=".26458" aria-label="LE7EL">
   <path d="m26.64 139.85v7.5565h5.3446v-1.397h-3.683v-6.1595z"/>
   <path d="m33.397 139.85v7.5565h5.7361l3.3e-5 -1.397h-4.0746v-1.8521h3.6618v-1.2912h-3.6618v-1.6192h4.0746v-1.397z"/>
   <path d="m47.547 139.86v7.5565l5.6515-9e-3v-1.3877h-3.9899v-1.8524h3.6618v-1.2912h-3.6618v-1.6192h3.9899v-1.397z"/>
   <path d="m54.601 139.85v7.5565h5.3446v-1.397h-3.683v-6.1595z"/>
  </g>
  <path d="m42.068 147.4-1.5318-4.0471h2.1091l1.5317 4.0471h-2.109m1e-6 0 1.987-6.5117h-3.5136v-1.897h5.5586v1.897l-1.923 6.5117"/>
 </g>
</svg>
